<svg xmlns="http://www.w3.org/2000/svg" xmlns:xlink="http://www.w3.org/1999/xlink" width="410.75994873046875" height="56.400001525878906" viewBox="0 0 410.75994873046875 56.400001525878906" fill="none">
<g >
<path     fill="#B71A35"  d="M50.58 56.4Q45.42 55.38 41.34 53.79Q37.26 52.2 33.9 49.68Q31.5 51.78 27.51 53.4Q23.52 55.02 17.28 56.4L12.66 48.66Q15.9 48.24 18.3 47.76Q20.7 47.28 22.44 46.71Q24.18 46.14 25.32 45.45Q26.46 44.76 27.18 43.8L14.76 43.8L14.76 36.96L28.62 36.96L28.62 34.32Q27.9 34.38 27.33 34.41Q26.76 34.44 26.46 34.44Q25.5 34.5 24.33 34.56Q23.16 34.62 21.99 34.71Q20.82 34.8 19.71 34.89Q18.6 34.98 17.82 35.04L16.44 29.16Q18.6 28.74 20.07 28.35Q21.54 27.96 23.46 27.12Q24.66 26.64 25.53 26.22Q26.4 25.8 27.48 25.14Q23.88 25.38 21.36 25.59Q18.84 25.8 17.4 25.98L16.2 21.24Q17.58 21 19.14 20.67Q20.7 20.34 21.9 19.86Q23.7 19.02 26.01 17.82Q28.32 16.62 30.54 14.88L31.32 15.3Q30.66 13.98 29.88 12.6Q29.1 11.22 28.56 10.38L34.14 9.12Q31.38 9.24001 28.71 9.36Q26.04 9.48 23.52 9.6Q23.88 10.26 24.39 11.07Q24.9 11.88 25.41 12.75Q25.92 13.62 26.37 14.4Q26.82 15.18 27.18 15.78L19.26 18.48Q18.9 17.76 18.42 16.83Q17.94 15.9 17.4 14.91Q16.86 13.92 16.32 12.99Q15.78 12.06 15.3 11.34L21.06 9.66Q20.16 9.72 19.29 9.72Q18.42 9.72 17.58 9.78L16.2 2.04Q20.34 1.98 24.96 1.83Q29.58 1.68 34.2 1.44Q38.82 1.2 43.17 0.93Q47.52 0.66 51.12 0.360004L52.44 8.1L46.92 8.46L53.16 11.58Q52.74 12.18 52.05 13.14Q51.36 14.1 50.64 15.12Q49.92 16.14 49.26 17.07Q48.6 18 48.24 18.48L49.5 19.68Q46.26 21.78 41.64 24.42Q37.02 27.06 31.2 29.52L42.48 28.86Q42.12 28.32 41.76 27.81Q41.4 27.3 41.1 26.88L47.22 23.46Q48 24.24 48.96 25.41Q49.92 26.58 50.82 27.84Q51.72 29.1 52.56 30.33Q53.4 31.56 53.94 32.4L47.58 36.84Q47.22 36.18 46.74 35.37Q46.26 34.56 45.72 33.72Q44.4 33.72 42.45 33.78Q40.5 33.84 38.34 33.96L38.34 36.96L53.16 36.96L53.16 43.8L38.7 43.8Q41.4 45.66 45.24 46.77Q49.08 47.88 54.72 48.48L50.58 56.4ZM10.86 14.58Q9.95999 13.8 8.66999 12.81Q7.37999 11.82 6.02999 10.83Q4.67999 9.84 3.35999 8.97001Q2.03999 8.1 1.07999 7.56L6.17999 0.540001Q7.25999 1.08 8.48999 1.83Q9.71999 2.58 10.98 3.42Q12.24 4.26 13.47 5.1Q14.7 5.94 15.72 6.72L10.86 14.58ZM35.82 17.64Q35.04 18.18 33.69 19.02Q32.34 19.86 29.7 21.42L35.34 21.06Q37.2 19.86 39.09 18.63Q40.98 17.4 42.6 16.2L40.68 15.3Q41.76 14.04 42.9 12.18Q44.04 10.32 44.94 8.58Q43.02 8.7 41.07 8.79Q39.12 8.88 37.08 9Q37.44 9.66 37.92 10.56Q38.4 11.46 38.88 12.36Q39.36 13.26 39.75 14.04Q40.14 14.82 40.32 15.3L34.32 16.86L35.82 17.64ZM9.83999 29.04Q8.87999 28.2 7.61999 27.15Q6.35999 26.1 5.03999 25.02Q3.71999 23.94 2.45999 22.95Q1.19999 21.96 0.179988 21.24L5.57999 14.34Q6.77999 15 8.06999 15.9Q9.35999 16.8 10.59 17.73Q11.82 18.66 12.99 19.62Q14.16 20.58 15.06 21.36L9.83999 29.04ZM14.1 33.6Q13.56 35.76 12.84 38.73Q12.12 41.7 11.37 44.82Q10.62 47.94 9.86999 50.88Q9.11999 53.82 8.51999 55.86L-1.21593e-05 52.98Q0.899988 50.46 1.76999 47.61Q2.63999 44.76 3.41999 41.82Q4.19999 38.88 4.88999 36.09Q5.57999 33.3 6.05999 30.84L14.1 33.6ZM91.44 12.3L91.44 15.42L110.88 15.42L110.88 47.64Q110.88 50.16 110.46 51.66Q110.04 53.16 109.08 54.03Q108.12 54.9 106.56 55.29Q105 55.68 102.66 55.92L98.88 56.34L96.3 47.76L99.42 47.46Q100.26 47.34 100.86 46.74Q101.46 46.14 101.46 44.82L101.46 23.94L98.34 23.94Q97.86 24.96 97.17 26.37Q96.48 27.78 95.88 28.98L99.78 28.98L99.78 35.52L91.08 35.52L91.08 38.28L100.2 38.28L100.2 45.3L91.08 45.3L91.08 54.72L81.54 54.72L81.54 45.3L72.48 45.3L72.48 38.28L81.54 38.28L81.54 35.52L72.78 35.52L72.78 28.98L76.26 28.98Q75.84 27.78 75.33 26.37Q74.82 24.96 74.34 23.94L71.1 23.94L71.1 56.04L61.8 56.04L61.8 15.42L81.24 15.42L81.24 12.3L59.28 12.3L59.28 3.42L81.24 3.42L81.24 0.300003L91.44 0.540001L91.44 3.42L113.4 3.42L113.4 12.3L91.44 12.3ZM87.42 28.98Q87.9 27.84 88.38 26.55Q88.86 25.26 89.34 23.94L83.1 23.94Q83.7 25.14 84.3 26.49Q84.9 27.84 85.38 28.98L87.42 28.98ZM172.8 3.12L172.8 11.1L118.86 11.1L118.86 3.12L140.46 3.12Q140.22 2.34 139.98 1.68Q139.74 1.02 139.5 0.480003L150.96 0.360004L151.62 3.12L172.8 3.12ZM165.66 13.08L165.66 26.46L126.12 26.46L126.12 13.08L165.66 13.08ZM156.3 18.06L135.42 18.06L135.42 21.12L156.3 21.12L156.3 18.06ZM121.5 28.44L170.22 28.44L170.22 49.02Q170.22 50.82 169.86 52.08Q169.5 53.34 168.63 54.15Q167.76 54.96 166.38 55.38Q165 55.8 162.96 55.98L157.74 56.4L156.18 51.36L133.68 51.36L133.68 37.5L158.04 37.5L158.04 46.92L158.46 46.92Q159.96 46.8 160.47 46.29Q160.98 45.78 160.98 44.58L160.98 35.58L130.98 35.58L130.98 55.98L121.5 55.98L121.5 28.44ZM149.28 42.3L142.44 42.3L142.44 45.84L149.28 45.84L149.28 42.3ZM229.74 41.52L210.12 41.52L210.12 56.34L200.1 56.34L200.1 41.52L180.48 41.52L180.48 9L200.1 9L200.1 0.420006L210.12 0.66L210.12 9L229.74 9L229.74 41.52ZM200.1 31.56L200.1 19.02L190.08 19.02L190.08 31.56L200.1 31.56ZM220.08 19.02L210.12 19.02L210.12 31.56L220.08 31.56L220.08 19.02ZM291.48 6.54L291.48 15.84L251.4 15.84L251.4 24.54Q251.4 30.24 251.01 34.59Q250.62 38.94 249.87 42.6Q249.12 46.26 248.04 49.5Q246.96 52.74 245.58 56.16L236.46 51.9Q237.9 48.96 238.95 46.14Q240 43.32 240.72 40.26Q241.44 37.2 241.83 33.69Q242.22 30.18 242.22 25.86L242.22 6.54L263.28 6.54Q263.1 5.82 262.89 4.89Q262.68 3.96 262.44 3.06001Q262.2 2.16 262.02 1.44Q261.84 0.720001 261.72 0.360004L272.4 0.360004Q272.58 0.900002 272.79 1.74001Q273 2.58 273.18 3.45Q273.36 4.32 273.51 5.16Q273.66 6 273.78 6.54L291.48 6.54ZM350.1 38.4L347.64 36.66L347.64 55.26L315.72 55.26L315.72 37.5L314.16 38.58L312.96 33.72L312.96 35.22Q312.3 35.34 311.52 35.49Q310.74 35.64 309.84 35.76L309.84 48.66Q309.84 51 309.51 52.38Q309.18 53.76 308.31 54.51Q307.44 55.26 305.94 55.59Q304.44 55.92 302.04 56.16L299.64 56.4L297.3 46.8L298.8 46.56Q300.18 46.32 300.9 45.84Q301.62 45.36 301.62 43.8L301.62 37.14Q300.06 37.44 298.74 37.65Q297.42 37.86 296.46 38.1L295.68 28.08Q296.94 27.9 298.44 27.72Q299.94 27.54 301.62 27.24L301.62 18.72L297.72 18.72L297.72 9.36L301.62 9.36L301.62 0.599998L309.84 0.840004L309.84 9.36L312.66 9.36L312.66 18.72L309.84 18.72L309.84 25.98Q311.52 25.74 312.9 25.44L312.9 28.5Q315.18 27.12 316.74 25.83Q318.3 24.54 319.68 22.8L313.26 22.8L313.2 14.88L317.64 14.88Q317.4 13.98 317.13 12.9Q316.86 11.82 316.56 10.92L314.94 10.92L314.04 2.46Q317.88 2.4 322.68 2.28Q327.48 2.16 332.25 1.98Q337.02 1.8 341.31 1.59Q345.6 1.38 348.36 1.14L349.8 9.72Q349.14 9.78 348.48 9.78Q347.82 9.78 347.04 9.84L345.6 14.88L350.34 14.88L350.4 22.8L344.04 22.8Q345.78 24.6 347.82 25.92Q349.86 27.24 352.26 28.32L350.1 38.4ZM339.42 10.2Q338.4 10.26 337.44 10.26Q336.48 10.26 335.46 10.32L335.46 14.88L338.04 14.88L339.42 10.2ZM324.06 10.74Q324.36 11.76 324.66 12.9Q324.96 14.04 325.2 14.88L327.96 14.88L327.96 10.62Q326.94 10.62 325.98 10.65Q325.02 10.68 324.06 10.74ZM327.72 22.8Q327.06 24.18 326.25 25.5Q325.44 26.82 324.6 28.08L338.94 28.08Q337.98 26.82 337.14 25.5Q336.3 24.18 335.64 22.8L335.16 22.8L335.16 26.88L328.32 26.88L328.32 22.8L327.72 22.8ZM324.36 38.16L328.2 38.16L328.2 34.8L324.36 34.8L324.36 38.16ZM339.06 34.8L335.28 34.8L335.28 38.16L339.06 38.16L339.06 34.8ZM324.36 48L328.2 48L328.2 44.28L324.36 44.28L324.36 48ZM339.06 48L339.06 44.28L335.28 44.28L335.28 48L339.06 48ZM373.26 0Q373.5 1.5 373.71 3.54Q373.92 5.58 374.16 7.74L380.7 7.74L380.7 17.16L356.82 17.16L356.82 7.74L364.2 7.74Q363.96 5.76 363.66 3.87Q363.36 1.98 363.06 0.420006L373.26 0ZM398.04 16.32L398.04 23.4L408.06 23.4L408.06 55.26L380.94 55.26L380.94 23.4L388.32 23.4L388.32 0.360004L398.04 0.599998L398.04 6.78L410.76 6.78L410.76 16.32L398.04 16.32ZM380.4 20.16Q379.98 22.08 379.38 24.72Q378.78 27.36 378.09 30.3Q377.4 33.24 376.68 36.27Q375.96 39.3 375.36 42L379.08 41.58L378.84 51.48Q377.82 51.6 376.11 51.84Q374.4 52.08 372.3 52.32Q370.2 52.56 367.89 52.86Q365.58 53.16 363.39 53.43Q361.2 53.7 359.28 53.94Q357.36 54.18 356.04 54.36L355.08 43.98L367.08 42.84Q367.32 42 367.5 41.07Q367.68 40.14 367.92 39.18L361.2 40.44Q360.9 38.7 360.42 36Q359.94 33.3 359.4 30.42Q358.86 27.54 358.32 24.84Q357.78 22.14 357.36 20.4L365.34 18.96Q365.7 20.7 366.15 22.86Q366.6 25.02 367.02 27.33Q367.44 29.64 367.86 31.89Q368.28 34.14 368.58 36.12Q369.12 33.72 369.66 31.23Q370.2 28.74 370.68 26.4Q371.16 24.06 371.55 22.02Q371.94 19.98 372.18 18.42L380.4 20.16ZM398.82 32.94L390 32.94L390 45.78L398.82 45.78L398.82 32.94Z">
</path>
</g>
</svg>
