<svg xmlns="http://www.w3.org/2000/svg" xmlns:xlink="http://www.w3.org/1999/xlink" width="532" height="59" viewBox="0 0 532 59" fill="none">
<g >
<path     fill="#B71A35"  d="M45.1573 51.235Q41.2873 50.47 38.2273 49.2775Q35.1673 48.085 32.6473 46.195Q30.8473 47.77 27.8548 48.985Q24.8623 50.2 20.1823 51.235L16.7173 45.43Q19.1473 45.115 20.9473 44.755Q22.7473 44.395 24.0523 43.9675Q25.3573 43.54 26.2123 43.0225Q27.0673 42.505 27.6073 41.785L18.2923 41.785L18.2923 36.655L28.6873 36.655L28.6873 34.675Q28.1473 34.72 27.7198 34.7425Q27.2923 34.765 27.0673 34.765Q26.3473 34.81 25.4698 34.855Q24.5923 34.9 23.7148 34.9675Q22.8373 35.035 22.0048 35.1025Q21.1723 35.17 20.5873 35.215L19.5523 30.805Q21.1723 30.49 22.2748 30.1975Q23.3773 29.905 24.8173 29.275Q25.7173 28.915 26.3698 28.6Q27.0223 28.285 27.8323 27.79Q25.1323 27.97 23.2423 28.1275Q21.3523 28.285 20.2723 28.42L19.3723 24.865Q20.4073 24.685 21.5773 24.4375Q22.7473 24.19 23.6473 23.83Q24.9973 23.2 26.7298 22.3Q28.4623 21.4 30.1273 20.095L30.7123 20.41Q30.2173 19.42 29.6323 18.385Q29.0473 17.35 28.6423 16.72L32.8273 15.775Q30.7573 15.865 28.7548 15.955Q26.7523 16.045 24.8623 16.135Q25.1323 16.63 25.5148 17.2375Q25.8973 17.845 26.2798 18.4975Q26.6623 19.15 26.9998 19.735Q27.3373 20.32 27.6073 20.77L21.6673 22.795Q21.3973 22.255 21.0373 21.5575Q20.6773 20.86 20.2723 20.1175Q19.8673 19.375 19.4623 18.6775Q19.0573 17.98 18.6973 17.44L23.0173 16.18Q22.3423 16.225 21.6898 16.225Q21.0373 16.225 20.4073 16.27L19.3723 10.465Q22.4773 10.42 25.9423 10.3075Q29.4073 10.195 32.8723 10.015Q36.3373 9.835 39.5998 9.6325Q42.8623 9.43 45.5623 9.205L46.5523 15.01L42.4123 15.28L47.0923 17.62Q46.7773 18.07 46.2598 18.79Q45.7423 19.51 45.2023 20.275Q44.6623 21.04 44.1673 21.7375Q43.6723 22.435 43.4023 22.795L44.3473 23.695Q41.9173 25.27 38.4523 27.25Q34.9873 29.23 30.6223 31.075L39.0823 30.58Q38.8123 30.175 38.5423 29.7925Q38.2723 29.41 38.0473 29.095L42.6373 26.53Q43.2223 27.115 43.9423 27.9925Q44.6623 28.87 45.3373 29.815Q46.0123 30.76 46.6423 31.6825Q47.2723 32.605 47.6773 33.235L42.9073 36.565Q42.6373 36.07 42.2773 35.4625Q41.9173 34.855 41.5123 34.225Q40.5223 34.225 39.0598 34.27Q37.5973 34.315 35.9773 34.405L35.9773 36.655L47.0923 36.655L47.0923 41.785L36.2473 41.785Q38.2723 43.18 41.1523 44.0125Q44.0323 44.845 48.2623 45.295L45.1573 51.235ZM15.3673 19.87Q14.6923 19.285 13.7248 18.5425Q12.7573 17.8 11.7448 17.0575Q10.7323 16.315 9.74229 15.6625Q8.75229 15.01 8.0323 14.605L11.8573 9.34Q12.6673 9.745 13.5898 10.3075Q14.5123 10.87 15.4573 11.5Q16.4023 12.13 17.3248 12.76Q18.2473 13.39 19.0123 13.975L15.3673 19.87ZM34.0873 22.165Q33.5023 22.57 32.4898 23.2Q31.4773 23.83 29.4973 25L33.7273 24.73Q35.1223 23.83 36.5398 22.9075Q37.9573 21.985 39.1723 21.085L37.7323 20.41Q38.5423 19.465 39.3973 18.07Q40.2523 16.675 40.9273 15.37Q39.4873 15.46 38.0248 15.5275Q36.5623 15.595 35.0323 15.685Q35.3023 16.18 35.6623 16.855Q36.0223 17.53 36.3823 18.205Q36.7423 18.88 37.0348 19.465Q37.3273 20.05 37.4623 20.41L32.9623 21.58L34.0873 22.165ZM14.6023 30.715Q13.8823 30.085 12.9373 29.2975Q11.9923 28.51 11.0023 27.7Q10.0123 26.89 9.0673 26.1475Q8.12229 25.405 7.35729 24.865L11.4073 19.69Q12.3073 20.185 13.2748 20.86Q14.2423 21.535 15.1648 22.2325Q16.0873 22.93 16.9648 23.65Q17.8423 24.37 18.5173 24.955L14.6023 30.715ZM17.7973 34.135Q17.3923 35.755 16.8523 37.9825Q16.3123 40.21 15.7498 42.55Q15.1873 44.89 14.6248 47.095Q14.0623 49.3 13.6123 50.83L7.22229 48.67Q7.89729 46.78 8.5498 44.6425Q9.20229 42.505 9.78729 40.3Q10.3723 38.095 10.8898 36.0025Q11.4073 33.91 11.7673 32.065L17.7973 34.135ZM75.8023 18.16L75.8023 20.5L90.3823 20.5L90.3823 44.665Q90.3823 46.555 90.0673 47.68Q89.7523 48.805 89.0323 49.4575Q88.3123 50.11 87.1423 50.4025Q85.9723 50.695 84.2173 50.875L81.3823 51.19L79.4473 44.755L81.7873 44.53Q82.4173 44.44 82.8673 43.99Q83.3173 43.54 83.3173 42.55L83.3173 26.89L80.9773 26.89Q80.6173 27.655 80.0998 28.7125Q79.5823 29.77 79.1323 30.67L82.0573 30.67L82.0573 35.575L75.5323 35.575L75.5323 37.645L82.3723 37.645L82.3723 42.91L75.5323 42.91L75.5323 49.975L68.3773 49.975L68.3773 42.91L61.5823 42.91L61.5823 37.645L68.3773 37.645L68.3773 35.575L61.8073 35.575L61.8073 30.67L64.4173 30.67Q64.1023 29.77 63.7198 28.7125Q63.3373 27.655 62.9773 26.89L60.5473 26.89L60.5473 50.965L53.5723 50.965L53.5723 20.5L68.1523 20.5L68.1523 18.16L51.6823 18.16L51.6823 11.5L68.1523 11.5L68.1523 9.16L75.8023 9.34L75.8023 11.5L92.2723 11.5L92.2723 18.16L75.8023 18.16ZM72.7873 30.67Q73.1473 29.815 73.5073 28.8475Q73.8673 27.88 74.2273 26.89L69.5473 26.89Q69.9973 27.79 70.4473 28.8025Q70.8973 29.815 71.2573 30.67L72.7873 30.67ZM136.822 11.275L136.822 17.26L96.3673 17.26L96.3673 11.275L112.567 11.275Q112.387 10.69 112.207 10.195Q112.027 9.7 111.847 9.295L120.442 9.205L120.937 11.275L136.822 11.275ZM131.467 18.745L131.467 28.78L101.812 28.78L101.812 18.745L131.467 18.745ZM124.447 22.48L108.787 22.48L108.787 24.775L124.447 24.775L124.447 22.48ZM98.3473 30.265L134.887 30.265L134.887 45.7Q134.887 47.05 134.617 47.995Q134.347 48.94 133.695 49.5475Q133.042 50.155 132.007 50.47Q130.972 50.785 129.442 50.92L125.527 51.235L124.357 47.455L107.482 47.455L107.482 37.06L125.752 37.06L125.752 44.125L126.067 44.125Q127.192 44.035 127.575 43.6525Q127.957 43.27 127.957 42.37L127.957 35.62L105.457 35.62L105.457 50.92L98.3473 50.92L98.3473 30.265ZM119.182 40.66L114.052 40.66L114.052 43.315L119.182 43.315L119.182 40.66ZM179.527 40.075L164.812 40.075L164.812 51.19L157.297 51.19L157.297 40.075L142.582 40.075L142.582 15.685L157.297 15.685L157.297 9.25L164.812 9.43L164.812 15.685L179.527 15.685L179.527 40.075ZM157.297 32.605L157.297 23.2L149.782 23.2L149.782 32.605L157.297 32.605ZM172.282 23.2L164.812 23.2L164.812 32.605L172.282 32.605L172.282 23.2ZM225.832 13.84L225.832 20.815L195.772 20.815L195.772 27.34Q195.772 31.615 195.48 34.8775Q195.187 38.14 194.625 40.885Q194.062 43.63 193.252 46.06Q192.442 48.49 191.407 51.055L184.567 47.86Q185.647 45.655 186.435 43.54Q187.222 41.425 187.762 39.13Q188.302 36.835 188.595 34.2025Q188.887 31.57 188.887 28.33L188.887 13.84L204.682 13.84Q204.547 13.3 204.39 12.6025Q204.232 11.905 204.052 11.23Q203.872 10.555 203.737 10.015Q203.602 9.475 203.512 9.205L211.522 9.205Q211.657 9.61 211.815 10.24Q211.972 10.87 212.107 11.5225Q212.242 12.175 212.355 12.805Q212.467 13.435 212.557 13.84L225.832 13.84ZM269.797 37.735L267.952 36.43L267.952 50.38L244.012 50.38L244.012 37.06L242.842 37.87L241.942 34.225L241.942 35.35Q241.447 35.44 240.862 35.5525Q240.277 35.665 239.602 35.755L239.602 45.43Q239.602 47.185 239.355 48.22Q239.107 49.255 238.455 49.8175Q237.802 50.38 236.677 50.6275Q235.552 50.875 233.752 51.055L231.952 51.235L230.197 44.035L231.322 43.855Q232.357 43.675 232.897 43.315Q233.437 42.955 233.437 41.785L233.437 36.79Q232.267 37.015 231.277 37.1725Q230.287 37.33 229.567 37.51L228.982 29.995Q229.927 29.86 231.052 29.725Q232.177 29.59 233.437 29.365L233.437 22.975L230.512 22.975L230.512 15.955L233.437 15.955L233.437 9.385L239.602 9.565L239.602 15.955L241.717 15.955L241.717 22.975L239.602 22.975L239.602 28.42Q240.862 28.24 241.897 28.015L241.897 30.31Q243.607 29.275 244.777 28.3075Q245.947 27.34 246.982 26.035L242.167 26.035L242.122 20.095L245.452 20.095Q245.272 19.42 245.07 18.61Q244.867 17.8 244.642 17.125L243.427 17.125L242.752 10.78Q245.632 10.735 249.232 10.645Q252.832 10.555 256.41 10.42Q259.987 10.285 263.205 10.1275Q266.422 9.97 268.492 9.79L269.572 16.225Q269.077 16.27 268.582 16.27Q268.087 16.27 267.502 16.315L266.422 20.095L269.977 20.095L270.022 26.035L265.252 26.035Q266.557 27.385 268.087 28.375Q269.617 29.365 271.417 30.175L269.797 37.735ZM261.787 16.585Q261.022 16.63 260.302 16.63Q259.582 16.63 258.817 16.675L258.817 20.095L260.752 20.095L261.787 16.585ZM250.267 16.99Q250.492 17.755 250.717 18.61Q250.942 19.465 251.122 20.095L253.192 20.095L253.192 16.9Q252.427 16.9 251.707 16.9225Q250.987 16.945 250.267 16.99ZM253.012 26.035Q252.517 27.07 251.91 28.06Q251.302 29.05 250.672 29.995L261.427 29.995Q260.707 29.05 260.077 28.06Q259.447 27.07 258.952 26.035L258.592 26.035L258.592 29.095L253.462 29.095L253.462 26.035L253.012 26.035ZM250.492 37.555L253.372 37.555L253.372 35.035L250.492 35.035L250.492 37.555ZM261.517 35.035L258.682 35.035L258.682 37.555L261.517 37.555L261.517 35.035ZM250.492 44.935L253.372 44.935L253.372 42.145L250.492 42.145L250.492 44.935ZM261.517 44.935L261.517 42.145L258.682 42.145L258.682 44.935L261.517 44.935ZM287.167 8.935Q287.347 10.06 287.505 11.59Q287.662 13.12 287.842 14.74L292.747 14.74L292.747 21.805L274.837 21.805L274.837 14.74L280.372 14.74Q280.192 13.255 279.967 11.8375Q279.742 10.42 279.517 9.25L287.167 8.935ZM305.752 21.175L305.752 26.485L313.267 26.485L313.267 50.38L292.927 50.38L292.927 26.485L298.462 26.485L298.462 9.205L305.752 9.385L305.752 14.02L315.292 14.02L315.292 21.175L305.752 21.175ZM292.522 24.055Q292.207 25.495 291.757 27.475Q291.307 29.455 290.79 31.66Q290.272 33.865 289.732 36.1375Q289.192 38.41 288.742 40.435L291.532 40.12L291.352 47.545Q290.587 47.635 289.305 47.815Q288.022 47.995 286.447 48.175Q284.872 48.355 283.14 48.58Q281.407 48.805 279.765 49.0075Q278.122 49.21 276.682 49.39Q275.242 49.57 274.252 49.705L273.532 41.92L282.532 41.065Q282.712 40.435 282.847 39.7375Q282.982 39.04 283.162 38.32L278.122 39.265Q277.897 37.96 277.537 35.935Q277.177 33.91 276.772 31.75Q276.367 29.59 275.962 27.565Q275.557 25.54 275.242 24.235L281.227 23.155Q281.497 24.46 281.835 26.08Q282.172 27.7 282.487 29.4325Q282.802 31.165 283.117 32.8525Q283.432 34.54 283.657 36.025Q284.062 34.225 284.467 32.3575Q284.872 30.49 285.232 28.735Q285.592 26.98 285.885 25.45Q286.177 23.92 286.357 22.75L292.522 24.055ZM306.337 33.64L299.722 33.64L299.722 43.27L306.337 43.27L306.337 33.64ZM341.633 35.62Q339.967 35.62 339 35.44Q338.033 35.26 337.56 34.7425Q337.087 34.225 336.975 33.28Q336.863 32.335 336.863 30.76Q336.863 29.185 336.975 28.2175Q337.087 27.25 337.56 26.7325Q338.033 26.215 339 26.035Q339.967 25.855 341.633 25.855Q343.298 25.855 344.242 26.035Q345.188 26.215 345.682 26.7325Q346.178 27.25 346.312 28.2175Q346.448 29.185 346.448 30.76Q346.448 32.335 346.312 33.28Q346.178 34.225 345.682 34.7425Q345.188 35.26 344.242 35.44Q343.298 35.62 341.633 35.62ZM380.753 35.665L380.753 45.295Q380.753 47.05 380.573 48.085Q380.393 49.12 379.785 49.6825Q379.178 50.245 378.053 50.4925Q376.928 50.74 374.993 50.92L372.068 51.19L370.223 43.99L372.338 43.765Q373.418 43.675 373.755 43.2475Q374.093 42.82 374.093 41.65L374.093 36.655L369.773 37.375L369.143 29.905Q370.178 29.77 371.46 29.6125Q372.743 29.455 374.093 29.23L374.093 22.885L370.268 22.885L370.268 15.865L374.093 15.865L374.093 9.16L380.753 9.34L380.753 15.865L384.038 15.865L384.038 22.345Q384.983 21.31 385.613 20.3875Q386.243 19.465 386.58 18.475Q386.918 17.485 387.075 16.36Q387.233 15.235 387.233 13.75L387.233 10.285L406.268 10.285L406.268 16.27Q406.268 18.295 408.068 18.295L410.228 18.295L409.193 24.37L404.108 24.37Q401.588 24.37 400.418 23.605Q399.248 22.84 399.248 20.41L399.248 16.54L394.253 16.54L394.253 17.71Q394.253 19.735 393.398 21.8275Q392.543 23.92 390.518 25.945L384.038 22.57L384.038 22.885L380.753 22.885L380.753 28.24Q381.518 28.15 382.215 28.015Q382.913 27.88 383.543 27.79L383.633 35.17L380.753 35.665ZM407.573 51.19Q404.648 50.02 401.97 48.715Q399.293 47.41 396.863 45.88Q392.318 48.805 386.153 51.235L382.013 44.8Q384.488 44.035 386.648 43.135Q388.808 42.235 390.743 41.29Q389.393 40.075 388.155 38.77Q386.918 37.465 385.793 36.025L389.843 33.325L385.253 33.325L385.253 26.71L408.563 26.71L408.563 33.595Q406.313 37.69 402.758 41.245Q404.513 42.01 406.538 42.685Q408.563 43.36 410.993 43.99L407.573 51.19ZM392.543 33.325Q394.433 35.845 396.728 37.645Q398.123 36.61 399.203 35.5075Q400.283 34.405 401.048 33.325L392.543 33.325ZM455.003 11.77L455.003 17.665L429.263 17.665L429.263 11.77L437.948 11.77Q437.768 11.095 437.588 10.4425Q437.408 9.79 437.183 9.295L444.833 9.25Q444.923 9.385 445.08 10.15Q445.238 10.915 445.418 11.77L455.003 11.77ZM428.903 30.175L453.743 30.175L453.743 45.745Q453.743 47.41 453.495 48.355Q453.248 49.3 452.64 49.84Q452.033 50.38 451.02 50.5825Q450.008 50.785 448.433 50.965L446.273 51.19L445.283 47.41L436.778 47.41L436.778 37.015L445.823 37.015L445.823 44.17L446.093 44.125Q446.993 43.99 447.263 43.585Q447.533 43.18 447.533 42.37L447.533 35.215L435.068 35.215L435.068 50.965L428.903 50.965L428.903 38.995L426.968 40.93Q426.563 40.165 426 39.2875Q425.438 38.41 424.808 37.51L424.808 51.01L418.553 51.01L418.553 39.175Q417.563 41.2 416.505 42.9775Q415.448 44.755 414.728 45.79L413.468 36.025Q415.088 33.685 416.46 31.57Q417.833 29.455 418.553 27.745L414.683 27.745L414.683 20.86L418.553 20.86L418.553 17.62Q417.743 17.71 416.978 17.7325Q416.213 17.755 415.583 17.8L414.908 11.23Q416.123 11.14 417.698 11.005Q419.273 10.87 420.96 10.7125Q422.648 10.555 424.313 10.375Q425.978 10.195 427.283 10.06L428.138 16.675Q427.463 16.765 426.608 16.8775Q425.753 16.99 424.808 17.08L424.808 20.86L428.363 20.86L428.363 27.745L424.808 27.745L424.808 32.245L426.518 30.895Q426.968 31.39 427.598 32.2Q428.228 33.01 428.903 33.91L428.903 30.175ZM451.898 19.51L451.898 28.375L430.703 28.375L430.703 19.51L451.898 19.51ZM445.193 22.795L437.273 22.795L437.273 24.91L445.193 24.91L445.193 22.795ZM442.583 40.615L440.018 40.615L440.018 43.135L442.583 43.135L442.583 40.615Z">
</path>
</g>
<rect  x="462" y="18" width="70" height="24" rx="12"    fill="#FFFFFF" >
</rect>
<path fill-rule="evenodd"  fill="rgba(0, 47, 167, 1)"  d="M520 18L474 18C467.373 18 462 23.3726 462 30C462 36.6274 467.373 42 474 42L520 42C526.627 42 532 36.6274 532 30C532 23.3726 526.627 18 520 18ZM466.929 22.9289Q469.858 20 474 20L520 20C525.523 20 530 24.4772 530 30C530 35.5228 525.523 40 520 40L474 40C468.477 40 464 35.5228 464 30Q464 25.8579 466.929 22.9289Z">
</path>
<g >
<path     fill="#002FA7"  d="M481.452 29.865Q482.568 30.279 483.18 31.071Q483.792 31.863 483.792 32.979Q483.792 34.635 482.424 35.544Q481.056 36.453 478.464 36.453L471.372 36.453L471.372 23.853L478.104 23.853Q480.624 23.853 481.911 24.753Q483.198 25.653 483.198 27.147Q483.198 28.029 482.757 28.731Q482.316 29.433 481.452 29.865ZM475.548 26.823L475.548 28.695L477.528 28.695Q478.914 28.695 478.914 27.759Q478.914 26.823 477.528 26.823L475.548 26.823ZM478.104 33.483Q479.508 33.483 479.508 32.493Q479.508 31.503 478.104 31.503L475.548 31.503L475.548 33.483L478.104 33.483ZM495.762 33.249L495.762 36.453L485.286 36.453L485.286 23.853L495.528 23.853L495.528 27.057L489.462 27.057L489.462 28.533L494.79 28.533L494.79 31.593L489.462 31.593L489.462 33.249L495.762 33.249ZM500.136 27.147L496.446 27.147L496.446 23.853L508.074 23.853L508.074 27.147L504.384 27.147L504.384 36.453L500.136 36.453L500.136 27.147ZM517.758 34.257L512.97 34.257L512.124 36.453L507.804 36.453L513.312 23.853L517.488 23.853L522.996 36.453L518.604 36.453L517.758 34.257ZM516.588 31.197L515.364 28.029L514.14 31.197L516.588 31.197Z">
</path>
</g>
</svg>
