<svg xmlns="http://www.w3.org/2000/svg" xmlns:xlink="http://www.w3.org/1999/xlink" width="537.3364868164062" height="50.7599983215332" viewBox="0 0 537.3364868164062 50.7599983215332" fill="none">
<g >
<path     fill="#B71A35"  d="M45.522 50.76Q40.878 49.842 37.206 48.411Q33.534 46.98 30.51 44.712Q28.35 46.602 24.759 48.06Q21.168 49.518 15.552 50.76L11.394 43.794Q14.31 43.416 16.47 42.984Q18.63 42.552 20.196 42.039Q21.762 41.526 22.788 40.905Q23.814 40.284 24.462 39.42L13.284 39.42L13.284 33.264L25.758 33.264L25.758 30.888Q25.11 30.942 24.597 30.969Q24.084 30.996 23.814 30.996Q22.95 31.05 21.897 31.104Q20.844 31.158 19.791 31.239Q18.738 31.32 17.739 31.401Q16.74 31.482 16.038 31.536L14.796 26.244Q16.74 25.866 18.063 25.515Q19.386 25.164 21.114 24.408Q22.194 23.976 22.977 23.598Q23.76 23.22 24.732 22.626Q21.492 22.842 19.224 23.031Q16.956 23.22 15.66 23.382L14.58 19.116Q15.822 18.9 17.226 18.603Q18.63 18.306 19.71 17.874Q21.33 17.118 23.409 16.038Q25.488 14.958 27.486 13.392L28.188 13.77Q27.594 12.582 26.892 11.34Q26.19 10.098 25.704 9.342L30.726 8.208Q28.242 8.316 25.839 8.424Q23.436 8.532 21.168 8.64Q21.492 9.234 21.951 9.963Q22.41 10.692 22.869 11.475Q23.328 12.258 23.733 12.96Q24.138 13.662 24.462 14.202L17.334 16.632Q17.01 15.984 16.578 15.147Q16.146 14.31 15.66 13.419Q15.174 12.528 14.688 11.691Q14.202 10.854 13.77 10.206L18.954 8.694Q18.144 8.748 17.361 8.748Q16.578 8.748 15.822 8.802L14.58 1.836Q18.306 1.782 22.464 1.647Q26.622 1.512 30.78 1.296Q34.938 1.08 38.853 0.836998Q42.768 0.593998 46.008 0.324001L47.196 7.29L42.228 7.614L47.844 10.422Q47.466 10.962 46.845 11.826Q46.224 12.69 45.576 13.608Q44.928 14.526 44.334 15.363Q43.74 16.2 43.416 16.632L44.55 17.712Q41.634 19.602 37.476 21.978Q33.318 24.354 28.08 26.568L38.232 25.974Q37.908 25.488 37.584 25.029Q37.26 24.57 36.99 24.192L42.498 21.114Q43.2 21.816 44.064 22.869Q44.928 23.922 45.738 25.056Q46.548 26.19 47.304 27.297Q48.06 28.404 48.546 29.16L42.822 33.156Q42.498 32.562 42.066 31.833Q41.634 31.104 41.148 30.348Q39.96 30.348 38.205 30.402Q36.45 30.456 34.506 30.564L34.506 33.264L47.844 33.264L47.844 39.42L34.83 39.42Q37.26 41.094 40.716 42.093Q44.172 43.092 49.248 43.632L45.522 50.76ZM9.77401 13.122Q8.96401 12.42 7.80301 11.529Q6.64201 10.638 5.42701 9.747Q4.21201 8.856 3.02401 8.073Q1.83601 7.29 0.972007 6.804L5.56201 0.485996Q6.53401 0.972 7.64101 1.647Q8.74801 2.322 9.88201 3.078Q11.016 3.834 12.123 4.59Q13.23 5.346 14.148 6.048L9.77401 13.122ZM32.238 15.876Q31.536 16.362 30.321 17.118Q29.106 17.874 26.73 19.278L31.806 18.954Q33.48 17.874 35.181 16.767Q36.882 15.66 38.34 14.58L36.612 13.77Q37.584 12.636 38.61 10.962Q39.636 9.288 40.446 7.722Q38.718 7.83 36.963 7.911Q35.208 7.992 33.372 8.1Q33.696 8.694 34.128 9.504Q34.56 10.314 34.992 11.124Q35.424 11.934 35.775 12.636Q36.126 13.338 36.288 13.77L30.888 15.174L32.238 15.876ZM8.85601 26.136Q7.99201 25.38 6.85801 24.435Q5.72401 23.49 4.53601 22.518Q3.34801 21.546 2.21401 20.655Q1.08001 19.764 0.162007 19.116L5.02201 12.906Q6.10201 13.5 7.26301 14.31Q8.42401 15.12 9.53101 15.957Q10.638 16.794 11.691 17.658Q12.744 18.522 13.554 19.224L8.85601 26.136ZM12.69 30.24Q12.204 32.184 11.556 34.857Q10.908 37.53 10.233 40.338Q9.55801 43.146 8.88301 45.792Q8.20801 48.438 7.66801 50.274L7.39098e-06 47.682Q0.810008 45.414 1.59301 42.849Q2.37601 40.284 3.07801 37.638Q3.78001 34.992 4.40101 32.481Q5.02201 29.97 5.45401 27.756L12.69 30.24ZM82.296 11.07L82.296 13.878L99.792 13.878L99.792 42.876Q99.792 45.144 99.414 46.494Q99.036 47.844 98.172 48.627Q97.308 49.41 95.904 49.761Q94.5 50.112 92.394 50.328L88.992 50.706L86.67 42.984L89.478 42.714Q90.234 42.606 90.774 42.066Q91.314 41.526 91.314 40.338L91.314 21.546L88.506 21.546Q88.074 22.464 87.453 23.733Q86.832 25.002 86.292 26.082L89.802 26.082L89.802 31.968L81.972 31.968L81.972 34.452L90.18 34.452L90.18 40.77L81.972 40.77L81.972 49.248L73.386 49.248L73.386 40.77L65.232 40.77L65.232 34.452L73.386 34.452L73.386 31.968L65.502 31.968L65.502 26.082L68.634 26.082Q68.256 25.002 67.797 23.733Q67.338 22.464 66.906 21.546L63.99 21.546L63.99 50.436L55.62 50.436L55.62 13.878L73.116 13.878L73.116 11.07L53.352 11.07L53.352 3.078L73.116 3.078L73.116 0.27L82.296 0.485996L82.296 3.078L102.06 3.078L102.06 11.07L82.296 11.07ZM78.678 26.082Q79.11 25.056 79.542 23.895Q79.974 22.734 80.406 21.546L74.79 21.546Q75.33 22.626 75.87 23.841Q76.41 25.056 76.842 26.082L78.678 26.082ZM155.52 2.808L155.52 9.99L106.974 9.99L106.974 2.808L126.414 2.808Q126.198 2.106 125.982 1.512Q125.766 0.917999 125.55 0.432003L135.864 0.324001L136.458 2.808L155.52 2.808ZM149.094 11.772L149.094 23.814L113.508 23.814L113.508 11.772L149.094 11.772ZM140.67 16.254L121.878 16.254L121.878 19.008L140.67 19.008L140.67 16.254ZM109.35 25.596L153.198 25.596L153.198 44.118Q153.198 45.738 152.874 46.872Q152.55 48.006 151.767 48.735Q150.984 49.464 149.742 49.842Q148.5 50.22 146.664 50.382L141.966 50.76L140.562 46.224L120.312 46.224L120.312 33.75L142.236 33.75L142.236 42.228L142.614 42.228Q143.964 42.12 144.423 41.661Q144.882 41.202 144.882 40.122L144.882 32.022L117.882 32.022L117.882 50.382L109.35 50.382L109.35 25.596ZM134.352 38.07L128.196 38.07L128.196 41.256L134.352 41.256L134.352 38.07ZM206.766 37.368L189.108 37.368L189.108 50.706L180.09 50.706L180.09 37.368L162.432 37.368L162.432 8.1L180.09 8.1L180.09 0.378002L189.108 0.593998L189.108 8.1L206.766 8.1L206.766 37.368ZM180.09 28.404L180.09 17.118L171.072 17.118L171.072 28.404L180.09 28.404ZM198.072 17.118L189.108 17.118L189.108 28.404L198.072 28.404L198.072 17.118ZM262.332 5.886L262.332 14.256L226.26 14.256L226.26 22.086Q226.26 27.216 225.909 31.131Q225.558 35.046 224.883 38.34Q224.208 41.634 223.236 44.55Q222.264 47.466 221.022 50.544L212.814 46.71Q214.11 44.064 215.055 41.526Q216 38.988 216.648 36.234Q217.296 33.48 217.647 30.321Q217.998 27.162 217.998 23.274L217.998 5.886L236.952 5.886Q236.79 5.238 236.601 4.401Q236.412 3.564 236.196 2.754Q235.98 1.944 235.818 1.296Q235.656 0.647999 235.548 0.324001L245.16 0.324001Q245.322 0.810001 245.511 1.566Q245.7 2.322 245.862 3.105Q246.024 3.888 246.159 4.644Q246.294 5.4 246.402 5.886L262.332 5.886ZM315.09 34.56L312.876 32.994L312.876 49.734L284.148 49.734L284.148 33.75L282.744 34.722L281.664 30.348L281.664 31.698Q281.07 31.806 280.368 31.941Q279.666 32.076 278.856 32.184L278.856 43.794Q278.856 45.9 278.559 47.142Q278.262 48.384 277.479 49.059Q276.696 49.734 275.346 50.031Q273.996 50.328 271.836 50.544L269.676 50.76L267.57 42.12L268.92 41.904Q270.162 41.688 270.81 41.256Q271.458 40.824 271.458 39.42L271.458 33.426Q270.054 33.696 268.866 33.885Q267.678 34.074 266.814 34.29L266.112 25.272Q267.246 25.11 268.596 24.948Q269.946 24.786 271.458 24.516L271.458 16.848L267.948 16.848L267.948 8.424L271.458 8.424L271.458 0.539997L278.856 0.756001L278.856 8.424L281.394 8.424L281.394 16.848L278.856 16.848L278.856 23.382Q280.368 23.166 281.61 22.896L281.61 25.65Q283.662 24.408 285.066 23.247Q286.47 22.086 287.712 20.52L281.934 20.52L281.88 13.392L285.876 13.392Q285.66 12.582 285.417 11.61Q285.174 10.638 284.904 9.828L283.446 9.828L282.636 2.214Q286.092 2.16 290.412 2.052Q294.732 1.944 299.025 1.782Q303.318 1.62 307.179 1.431Q311.04 1.242 313.524 1.026L314.82 8.748Q314.226 8.802 313.632 8.802Q313.038 8.802 312.336 8.856L311.04 13.392L315.306 13.392L315.36 20.52L309.636 20.52Q311.202 22.14 313.038 23.328Q314.874 24.516 317.034 25.488L315.09 34.56ZM305.478 9.18Q304.56 9.234 303.696 9.234Q302.832 9.234 301.914 9.288L301.914 13.392L304.236 13.392L305.478 9.18ZM291.654 9.666Q291.924 10.584 292.194 11.61Q292.464 12.636 292.68 13.392L295.164 13.392L295.164 9.558Q294.246 9.558 293.382 9.585Q292.518 9.612 291.654 9.666ZM294.948 20.52Q294.354 21.762 293.625 22.95Q292.896 24.138 292.14 25.272L305.046 25.272Q304.182 24.138 303.426 22.95Q302.67 21.762 302.076 20.52L301.644 20.52L301.644 24.192L295.488 24.192L295.488 20.52L294.948 20.52ZM291.924 34.344L295.38 34.344L295.38 31.32L291.924 31.32L291.924 34.344ZM305.154 31.32L301.752 31.32L301.752 34.344L305.154 34.344L305.154 31.32ZM291.924 43.2L295.38 43.2L295.38 39.852L291.924 39.852L291.924 43.2ZM305.154 43.2L305.154 39.852L301.752 39.852L301.752 43.2L305.154 43.2ZM335.934 0Q336.15 1.35 336.339 3.186Q336.528 5.022 336.744 6.966L342.63 6.966L342.63 15.444L321.138 15.444L321.138 6.966L327.78 6.966Q327.564 5.184 327.294 3.483Q327.024 1.782 326.754 0.378002L335.934 0ZM358.236 14.688L358.236 21.06L367.254 21.06L367.254 49.734L342.846 49.734L342.846 21.06L349.488 21.06L349.488 0.324001L358.236 0.539997L358.236 6.102L369.684 6.102L369.684 14.688L358.236 14.688ZM342.36 18.144Q341.982 19.872 341.442 22.248Q340.902 24.624 340.281 27.27Q339.66 29.916 339.012 32.643Q338.364 35.37 337.824 37.8L341.172 37.422L340.956 46.332Q340.038 46.44 338.499 46.656Q336.96 46.872 335.07 47.088Q333.18 47.304 331.101 47.574Q329.022 47.844 327.051 48.087Q325.08 48.33 323.352 48.546Q321.624 48.762 320.436 48.924L319.572 39.582L330.372 38.556Q330.588 37.8 330.75 36.963Q330.912 36.126 331.128 35.262L325.08 36.396Q324.81 34.83 324.378 32.4Q323.946 29.97 323.46 27.378Q322.974 24.786 322.488 22.356Q322.002 19.926 321.624 18.36L328.806 17.064Q329.13 18.63 329.535 20.574Q329.94 22.518 330.318 24.597Q330.696 26.676 331.074 28.701Q331.452 30.726 331.722 32.508Q332.208 30.348 332.694 28.107Q333.18 25.866 333.612 23.76Q334.044 21.654 334.395 19.818Q334.746 17.982 334.962 16.578L342.36 18.144ZM358.938 29.646L351 29.646L351 41.202L358.938 41.202L358.938 29.646ZM401.292 32.022Q399.294 32.022 398.133 31.806Q396.972 31.59 396.405 30.969Q395.838 30.348 395.703 29.214Q395.568 28.08 395.568 26.19Q395.568 24.3 395.703 23.139Q395.838 21.978 396.405 21.357Q396.972 20.736 398.133 20.52Q399.294 20.304 401.292 20.304Q403.29 20.304 404.424 20.52Q405.558 20.736 406.152 21.357Q406.746 21.978 406.908 23.139Q407.07 24.3 407.07 26.19Q407.07 28.08 406.908 29.214Q406.746 30.348 406.152 30.969Q405.558 31.59 404.424 31.806Q403.29 32.022 401.292 32.022ZM448.237 32.076L448.237 43.632Q448.237 45.738 448.021 46.98Q447.805 48.222 447.076 48.897Q446.346 49.572 444.997 49.869Q443.647 50.166 441.324 50.382L437.815 50.706L435.6 42.066L438.139 41.796Q439.435 41.688 439.84 41.175Q440.245 40.662 440.245 39.258L440.245 33.264L435.061 34.128L434.305 25.164Q435.547 25.002 437.086 24.813Q438.625 24.624 440.245 24.354L440.245 16.74L435.655 16.74L435.655 8.316L440.245 8.316L440.245 0.27L448.237 0.485996L448.237 8.316L452.178 8.316L452.178 16.092Q453.312 14.85 454.069 13.743Q454.824 12.636 455.229 11.448Q455.635 10.26 455.824 8.91Q456.013 7.56 456.013 5.778L456.013 1.62L478.854 1.62L478.854 8.802Q478.854 11.232 481.014 11.232L483.607 11.232L482.365 18.522L476.263 18.522Q473.239 18.522 471.835 17.604Q470.431 16.686 470.431 13.77L470.431 9.126L464.437 9.126L464.437 10.53Q464.437 12.96 463.411 15.471Q462.385 17.982 459.954 20.412L452.178 16.362L452.178 16.74L448.237 16.74L448.237 23.166Q449.155 23.058 449.992 22.896Q450.829 22.734 451.585 22.626L451.693 31.482L448.237 32.076ZM480.421 50.706Q476.911 49.302 473.698 47.736Q470.484 46.17 467.569 44.334Q462.115 47.844 454.716 50.76L449.749 43.038Q452.719 42.12 455.311 41.04Q457.902 39.96 460.225 38.826Q458.604 37.368 457.12 35.802Q455.635 34.236 454.285 32.508L459.145 29.268L453.637 29.268L453.637 21.33L481.609 21.33L481.609 29.592Q478.909 34.506 474.643 38.772Q476.749 39.69 479.178 40.5Q481.609 41.31 484.525 42.066L480.421 50.706ZM462.385 29.268Q464.652 32.292 467.406 34.452Q469.081 33.21 470.376 31.887Q471.673 30.564 472.591 29.268L462.385 29.268ZM537.336 3.402L537.336 10.476L506.448 10.476L506.448 3.402L516.87 3.402Q516.654 2.592 516.438 1.809Q516.222 1.026 515.953 0.432003L525.133 0.378002Q525.24 0.539997 525.43 1.458Q525.618 2.376 525.834 3.402L537.336 3.402ZM506.017 25.488L535.825 25.488L535.825 44.172Q535.825 46.17 535.528 47.304Q535.231 48.438 534.502 49.086Q533.773 49.734 532.557 49.977Q531.342 50.22 529.453 50.436L526.86 50.706L525.672 46.17L515.466 46.17L515.466 33.696L526.32 33.696L526.32 42.282L526.644 42.228Q527.724 42.066 528.049 41.58Q528.372 41.094 528.372 40.122L528.372 31.536L513.414 31.536L513.414 50.436L506.017 50.436L506.017 36.072L503.694 38.394Q503.208 37.476 502.534 36.423Q501.858 35.37 501.103 34.29L501.103 50.49L493.596 50.49L493.596 36.288Q492.409 38.718 491.139 40.851Q489.871 42.984 489.007 44.226L487.495 32.508Q489.439 29.7 491.086 27.162Q492.733 24.624 493.596 22.572L488.952 22.572L488.952 14.31L493.596 14.31L493.596 10.422Q492.625 10.53 491.707 10.557Q490.789 10.584 490.033 10.638L489.223 2.754Q490.681 2.646 492.57 2.484Q494.461 2.322 496.486 2.133Q498.51 1.944 500.508 1.728Q502.507 1.512 504.073 1.35L505.099 9.288Q504.289 9.396 503.263 9.531Q502.237 9.666 501.103 9.774L501.103 14.31L505.368 14.31L505.368 22.572L501.103 22.572L501.103 27.972L503.155 26.352Q503.694 26.946 504.451 27.918Q505.207 28.89 506.017 29.97L506.017 25.488ZM533.61 12.69L533.61 23.328L508.177 23.328L508.177 12.69L533.61 12.69ZM525.565 16.632L516.06 16.632L516.06 19.17L525.565 19.17L525.565 16.632ZM522.432 38.016L519.354 38.016L519.354 41.04L522.432 41.04L522.432 38.016Z">
</path>
</g>
</svg>
